<?xml version="1.0" encoding="utf-8" standalone="yes"?>
<!DOCTYPE svg PUBLIC "-//W3C//DTD SVG 1.1//EN" "http://www.w3.org/Graphics/SVG/1.1/DTD/svg11.dtd">
<svg width="943" height="761" viewBox="0 0 943 761" style="fill:none;stroke:none;fill-rule:evenodd;clip-rule:evenodd;stroke-linecap:round;stroke-linejoin:round;stroke-miterlimit:1.5;" version="1.1" xmlns="http://www.w3.org/2000/svg" xmlns:xlink="http://www.w3.org/1999/xlink"><style class="text-font-style fontImports" data-font-family="Roboto">@import url('https://fonts.googleapis.com/css2?family=Roboto:wght@400;700&amp;display=block');</style><g id="items" style="isolation: isolate"><g id="blend" style="mix-blend-mode: normal"><g id="g-root-sy_0_cu_v5hhmm16iaznr-fill" data-item-order="-214054" transform="translate(288.5977478027344, 171.043701171875)"><g id="sy_0_cu_v5hhmm16iaznr-fill" stroke="none" fill="url(#gradient-cbcbcb-248399021)"><g><path d="M 199.634094 293.527191C 198.21817 291.733704 196.699387 290.024902 195.086243 288.411774L 154.01149 247.337006L 112.936623 288.412933C 111.513199 289.836121 110.163383 291.333099 108.893295 292.896667C 77.773621 282.428619 51.366249 261.705475 33.688778 234.745087L 58.459995 186.128494L 10.133465 161.504929C 10.044754 159.422226 9.999993 157.327377 9.999993 155.22168C 9.999993 121.310585 21.623163 90.114326 41.103092 65.399414L 94.648117 73.880486L 103.248901 19.576767C 119.38591 13.389956 136.908005 10.000006 155.221664 10.000006C 172.460693 10.000006 188.997818 13.003797 204.339279 18.516659L 213.108246 73.880486L 269.041595 65.021103C 288.700958 89.795685 300.443359 121.137413 300.443359 155.22168C 300.443359 157.718277 300.380402 160.200378 300.255737 162.666718L 251.83403 187.338669L 276.322021 235.399765C 258.283051 262.591309 231.331131 283.355621 199.634094 293.527191Z"></path></g></g></g><g id="g-root-sy_5_cu_qqagla16iaxa8-fill" data-item-order="-214050" transform="translate(265.65643310546875, 110.37060546875)"><g id="sy_5_cu_qqagla16iaxa8-fill" stroke="none" fill="url(#gradient-fdac61-172712277)"><g><path d="M 125.466248 77.18029C 127.791954 62.497047 124.516106 46.926498 115.087494 33.949131C 96.230461 7.99462 59.903622 2.241064 33.949108 21.098089C 7.994597 39.955124 2.241032 76.281967 21.098066 102.236481C 30.526604 115.21373 44.322544 123.14077 59.005772 125.466255L 116.379112 134.55423L 125.46418 77.193481C 125.464775 77.189117 125.465508 77.184761 125.466248 77.18029Z"></path></g></g></g><g id="g-root-sy_4_cu_qqagla16iaxa9-fill" data-item-order="-214046" transform="translate(199.61383056640625, 314.453857421875)"><g id="sy_4_cu_qqagla16iaxa9-fill" stroke="none" fill="url(#gradient-ffed4b-499785973)"><g><path d="M 119.862038 94.475601C 113.112862 107.721733 101.310577 118.393105 86.054794 123.350014C 55.543491 133.26416 22.772518 116.566124 12.858847 86.054779C 2.945045 55.543476 19.642754 22.772499 50.153946 12.858825C 65.409599 7.901915 81.230171 9.597859 94.476089 16.347033L 146.233688 42.718212L 119.868095 94.463745C 119.866028 94.467728 119.863998 94.471718 119.862038 94.475601Z"></path></g></g></g><g id="g-root-sy_3_cu_hungce16iay2y-fill" data-item-order="-214042" transform="translate(373.3103332519531, 408.3807373046875)"><g id="sy_3_cu_hungce16iay2y-fill" stroke="none" fill="url(#gradient-4dd3ff-378786070)"><g><path d="M 109.163162 51.074875C 119.675392 61.586876 126.177338 76.109268 126.177338 92.150108C 126.177338 124.231636 100.170204 150.239365 68.088676 150.239365C 36.007145 150.239365 10.00001 124.231636 10.00001 92.150108C 10.00001 76.109375 16.501812 61.587208 27.013815 51.075241L 68.088303 10.00001L 109.153854 51.065418C 109.156883 51.068596 109.160027 51.071735 109.163162 51.074875Z"></path></g></g></g><g id="g-root-sy_2_cu_hungce16iay2z-fill" data-item-order="-214038" transform="translate(529.2213134765625, 315.664306640625)"><g id="sy_2_cu_hungce16iay2z-fill" stroke="none" fill="url(#gradient-bceb57-497517668)"><g><path d="M 61.757401 16.3472C 75.003426 9.597881 90.82412 7.901826 106.079895 12.858847C 136.590942 22.772518 153.289063 55.543491 143.375229 86.054794C 133.461411 116.566132 100.690445 133.264175 70.179176 123.350021C 54.92347 118.393112 43.121181 107.722008 36.372154 94.476089L 10.000019 42.718967L 61.74551 16.353222C 61.749496 16.351301 61.75341 16.349232 61.757401 16.3472Z"></path></g></g></g><g id="g-root-sy_1_cu_dety7y16iayv8-fill" data-item-order="-214034" transform="translate(480.6894226074219, 110.37060546875)"><defs><linearGradient id="gradient-cbcbcb-248399021" x2="0" y2="1"><stop offset="0" stop-color="#d9d9d9"></stop><stop offset="1" stop-color="#bcbcbc"></stop></linearGradient><linearGradient id="gradient-fdac61-172712277" x2="0" y2="1"><stop offset="0" stop-color="#ffc188"></stop><stop offset="1" stop-color="#fa963a"></stop></linearGradient><linearGradient id="gradient-ffed4b-499785973" x2="0" y2="1"><stop offset="0" stop-color="#fff282"></stop><stop offset="1" stop-color="#ffe714"></stop></linearGradient><linearGradient id="gradient-4dd3ff-378786070" x2="0" y2="1"><stop offset="0" stop-color="#7fdfff"></stop><stop offset="1" stop-color="#1ac6ff"></stop></linearGradient><linearGradient id="gradient-bceb57-497517668" x2="0" y2="1"><stop offset="0" stop-color="#cff976"></stop><stop offset="1" stop-color="#a8dd38"></stop></linearGradient><linearGradient id="gradient-64edab-240055791" x2="0" y2="1"><stop offset="0" stop-color="#83fac1"></stop><stop offset="1" stop-color="#44e095"></stop></linearGradient></defs><g id="sy_1_cu_dety7y16iayv8-fill" stroke="none" fill="url(#gradient-64edab-240055791)"><g><path d="M 10.719352 77.18029C 8.393646 62.497047 11.669458 46.926498 21.098108 33.949131C 39.955147 7.99462 76.28199 2.241064 102.236511 21.098089C 128.190994 39.955124 133.944366 76.281967 115.087517 102.236481C 105.65905 115.21373 91.863106 123.14077 77.179955 125.466255L 19.806492 134.55423L 10.721419 77.193481C 10.720829 77.189117 10.72009 77.184761 10.719352 77.18029Z"></path></g></g></g><g id="g-root-tx_simplete_13ymlj216iglc0-fill" data-item-order="0" transform="translate(620.187255859375, 76.52197265625)"><g id="tx_simplete_13ymlj216iglc0-fill" stroke="none" fill="#484848"><g><text style="font: 20px Roboto, sans-serif; white-space: pre;" font-size="20px" font-family="Roboto, sans-serif"><tspan x="12" y="64" dominant-baseline="ideographic">Simple text format </tspan><tspan x="12" y="88" dominant-baseline="ideographic">for creating content</tspan></text></g></g></g><g id="g-root-ic_shar_3zwxq16iaxae-fill" data-item-order="0" transform="translate(298.4827575683594, 146.61083984375)"></g><g id="g-root-ic_1_1qapwu616idqtm-fill" data-item-order="0" transform="translate(517.525390625, 146.61083984375)"></g><g id="g-root-tx_markdown_dcc1vi16iglc5-fill" data-item-order="0" transform="translate(620.187255859375, 62)"><g id="tx_markdown_dcc1vi16iglc5-fill" stroke="none" fill="#3cc583"><g><text style="font: bold 25px Roboto, sans-serif; white-space: pre;" font-weight="bold" font-size="25px" font-family="Roboto, sans-serif"><tspan x="12" y="42" dominant-baseline="ideographic">Markdown</tspan></text></g></g></g><g id="g-root-ic_imag_140i0se16if66j-fill" data-item-order="0" transform="translate(384.6091613769531, 267.83251953125)"></g><g id="g-root-tx_interact_qnsk8u16igjr6-fill" data-item-order="0" transform="translate(14, 290.8768310546875)"><g id="tx_interact_qnsk8u16igjr6-fill" stroke="none" fill="#e0cb15"><g><text style="font: bold 25px Roboto, sans-serif; white-space: pre;" font-weight="bold" font-size="25px" font-family="Roboto, sans-serif"><tspan x="44.47" y="39" dominant-baseline="ideographic">Interactive </tspan><tspan x="20.84" y="69" dominant-baseline="ideographic">Components</tspan></text></g></g></g><g id="g-root-tx_openecos_hs5jzy16igkjv-fill" data-item-order="0" transform="translate(38.61083984375, 38)"><g id="tx_openecos_hs5jzy16igkjv-fill" stroke="none" fill="#de8431"><g><text style="font: bold 25px Roboto, sans-serif; white-space: pre;" font-weight="bold" font-size="25px" font-family="Roboto, sans-serif"><tspan x="24.08" y="54" dominant-baseline="ideographic">Open Ecosystem</tspan></text></g></g></g><g id="g-root-tx_github_v2zla616igm4p-fill" data-item-order="0" transform="translate(692.798095703125, 334.27587890625)"><g id="tx_github_v2zla616igm4p-fill" stroke="none" fill="#92bd39"><g><text style="font: bold 25px Roboto, sans-serif; white-space: pre;" font-weight="bold" font-size="25px" font-family="Roboto, sans-serif"><tspan x="12" y="42" dominant-baseline="ideographic">GitHub</tspan></text></g></g></g><g id="g-root-tx_elements_1lz9qbi16if7k5-fill" data-item-order="0" transform="translate(38, 359.3990478515625)"><g id="tx_elements_1lz9qbi16if7k5-fill" stroke="none" fill="#484848"><g><text style="font: 20px Roboto, sans-serif; white-space: pre;" font-size="20px" font-family="Roboto, sans-serif"><tspan x="17.16" y="34" dominant-baseline="ideographic">Elements that </tspan><tspan x="20.39" y="58" dominant-baseline="ideographic">engage users </tspan><tspan x="34.39" y="82" dominant-baseline="ideographic">dynamically</tspan></text></g></g></g><g id="g-root-ic_2_18itf9a16iax3b-fill" data-item-order="0" transform="translate(233.13299560546875, 349.921142578125)"></g><g id="g-root-ic_1_meua2m16ice0x-fill" data-item-order="0" transform="translate(581.6650390625, 349.921142578125)"></g><g id="g-root-tx_platform_18eg3ni16igkjr-fill" data-item-order="0" transform="translate(692.798095703125, 359.399169921875)"><g id="tx_platform_18eg3ni16igkjr-fill" stroke="none" fill="#484848"><g><text style="font: 20px Roboto, sans-serif; white-space: pre;" font-size="20px" font-family="Roboto, sans-serif"><tspan x="12" y="52" dominant-baseline="ideographic">Platform for hosting </tspan><tspan x="12" y="76" dominant-baseline="ideographic">and publishing web </tspan><tspan x="12" y="100" dominant-baseline="ideographic">pages</tspan></text></g></g></g><g id="g-root-tx_mediaint_hs5jzy16igkjw-fill" data-item-order="0" transform="translate(324.6092224121094, 558.27587890625)"><g id="tx_mediaint_hs5jzy16igkjw-fill" stroke="none" fill="#1eabda"><g><text style="font: bold 25px Roboto, sans-serif; white-space: pre;" font-weight="bold" font-size="25px" font-family="Roboto, sans-serif"><tspan x="18.7" y="48" dominant-baseline="ideographic">Media Integration</tspan></text></g></g></g><g id="g-root-ic_coll_8x50u616ice14-fill" data-item-order="0" transform="translate(407.3990173339844, 466.0985107421875)"></g><g id="g-root-tx_seamless_1cu9lry16igjri-fill" data-item-order="0" transform="translate(312.6092224121094, 560.7979736328125)"><g id="tx_seamless_1cu9lry16igjri-fill" stroke="none" fill="#484848"><g><text style="font: 20px Roboto, sans-serif; white-space: pre;" font-size="20px" font-family="Roboto, sans-serif"><tspan x="32.4" y="76" dominant-baseline="ideographic">Seamless inclusion of </tspan><tspan x="15.49" y="100" dominant-baseline="ideographic">images, videos, and audio</tspan></text></g></g></g><g id="g-root-tx_accessto_9m6pq16if66c-fill" data-item-order="0" transform="translate(38.61083984375, 40.52215576171875)"><g id="tx_accessto_9m6pq16if66c-fill" stroke="none" fill="#484848"><g><text style="font: 20px Roboto, sans-serif; white-space: pre;" font-size="20px" font-family="Roboto, sans-serif"><tspan x="39.5" y="88" dominant-baseline="ideographic">Easy access to free </tspan><tspan x="81.08" y="112" dominant-baseline="ideographic">media libraries</tspan></text></g></g></g><g id="g-root-sy_0_cu_v5hhmm16iaznr-stroke" data-item-order="-214054" transform="translate(288.5977478027344, 171.043701171875)"><g id="sy_0_cu_v5hhmm16iaznr-stroke" fill="none" stroke-linecap="round" stroke-linejoin="round" stroke-miterlimit="4" stroke="#484848" stroke-width="2"><g><path d="M 108.893295 292.896912C 77.773621 282.429108 51.366249 261.705841 33.688778 234.744598M 10.133465 161.505447C 10.044754 159.42186 9.999993 157.327011 9.999993 155.22168C 9.999993 121.310585 21.623163 90.114326 41.103092 65.399414M 103.248901 19.576767C 119.38591 13.389956 136.907898 10.000006 155.221664 10.000006C 172.4608 10.000006 188.998413 13.003797 204.339493 18.516659M 269.041107 65.021103C 288.701111 89.795685 300.443359 121.137413 300.443359 155.22168C 300.443359 157.718643 300.38028 160.200867 300.255737 162.666946M 276.322388 235.399918C 258.283417 262.591187 231.331284 283.35611 199.633835 293.52655"></path></g></g></g><g id="g-root-sy_5_cu_qqagla16iaxa8-stroke" data-item-order="-214050" transform="translate(265.65643310546875, 110.37060546875)"><g id="sy_5_cu_qqagla16iaxa8-stroke" fill="none" stroke-linecap="round" stroke-linejoin="round" stroke-miterlimit="4" stroke="#484848" stroke-width="2"><g><path d="M 125.466248 77.18029C 127.791954 62.497047 124.516106 46.926498 115.087494 33.949131C 96.230461 7.99462 59.903622 2.241064 33.949108 21.098089C 7.994597 39.955124 2.241032 76.281967 21.098066 102.236481C 30.526604 115.21373 44.322544 123.14077 59.005772 125.466255L 116.379112 134.553879L 125.46418 77.193481C 125.464775 77.189117 125.465508 77.184761 125.466248 77.18029Z"></path></g></g></g><g id="g-root-sy_4_cu_qqagla16iaxa9-stroke" data-item-order="-214046" transform="translate(199.61383056640625, 314.453857421875)"><g id="sy_4_cu_qqagla16iaxa9-stroke" fill="none" stroke-linecap="round" stroke-linejoin="round" stroke-miterlimit="4" stroke="#484848" stroke-width="2"><g><path d="M 119.862038 94.475601C 113.112862 107.721733 101.310577 118.393105 86.054794 123.350014C 55.543491 133.263687 22.772518 116.566124 12.858717 86.054779C 2.945045 55.543476 19.642624 22.772499 50.153946 12.858714C 65.409599 7.901915 81.230171 9.597859 94.476089 16.346922L 146.233688 42.718212L 119.868095 94.463745C 119.866028 94.467728 119.863998 94.471718 119.862038 94.475601Z"></path></g></g></g><g id="g-root-sy_3_cu_hungce16iay2y-stroke" data-item-order="-214042" transform="translate(373.3103332519531, 408.3807373046875)"><g id="sy_3_cu_hungce16iay2y-stroke" fill="none" stroke-linecap="round" stroke-linejoin="round" stroke-miterlimit="4" stroke="#484848" stroke-width="2"><g><path d="M 109.163162 51.074875C 119.675392 61.586876 126.177338 76.109268 126.177338 92.150108C 126.177338 124.231636 100.170204 150.23877 68.088676 150.23877C 36.007145 150.23877 10.00001 124.231636 10.00001 92.150108C 10.00001 76.109375 16.501812 61.587208 27.013815 51.075241L 68.088303 10.00001L 109.153854 51.065418C 109.156883 51.068596 109.160027 51.071735 109.163162 51.074875Z"></path></g></g></g><g id="g-root-sy_2_cu_hungce16iay2z-stroke" data-item-order="-214038" transform="translate(529.2213134765625, 315.664306640625)"><g id="sy_2_cu_hungce16iay2z-stroke" fill="none" stroke-linecap="round" stroke-linejoin="round" stroke-miterlimit="4" stroke="#484848" stroke-width="2"><g><path d="M 61.757401 16.3472C 75.003426 9.597881 90.82412 7.901826 106.079895 12.858736C 136.591232 22.772518 153.28891 55.543491 143.375092 86.054794C 133.461411 116.566132 100.690445 133.263702 70.179176 123.350021C 54.92347 118.393112 43.121181 107.722008 36.372154 94.476089L 10.000019 42.718967L 61.74551 16.353222C 61.749496 16.351301 61.75341 16.349232 61.757401 16.3472Z"></path></g></g></g><g id="g-root-sy_1_cu_dety7y16iayv8-stroke" data-item-order="-214034" transform="translate(480.6894226074219, 110.37060546875)"><g id="sy_1_cu_dety7y16iayv8-stroke" fill="none" stroke-linecap="round" stroke-linejoin="round" stroke-miterlimit="4" stroke="#484848" stroke-width="2"><g><path d="M 10.719352 77.18029C 8.393646 62.497047 11.669458 46.926498 21.098108 33.949131C 39.955147 7.99462 76.28199 2.241064 102.236511 21.098089C 128.190994 39.955124 133.944595 76.281967 115.087517 102.236481C 105.65905 115.21373 91.863106 123.14077 77.179955 125.466255L 19.806492 134.553879L 10.721419 77.193481C 10.720829 77.189117 10.72009 77.184761 10.719352 77.18029Z"></path></g></g></g><g id="g-root-tx_simplete_13ymlj216iglc0-stroke" data-item-order="0" transform="translate(620.187255859375, 76.52197265625)"></g><g id="g-root-ic_shar_3zwxq16iaxae-stroke" data-item-order="0" transform="translate(298.4827575683594, 146.61083984375)"><g id="ic_shar_3zwxq16iaxae-stroke" fill="none" stroke-linecap="round" stroke-linejoin="round" stroke-miterlimit="4" stroke="#484848" stroke-width="2"><g><path d="M 31 52.98C 20.067852 52.445534 11.379395 43.604095 11.035804 32.664284C 10.692212 21.724472 18.80872 12.355231 29.685783 11.135795C 40.562843 9.916358 50.552567 17.255693 52.639999 28M 11.32 28.34L 22.42 28.34C 23.884014 28.348686 25.282732 28.947107 26.299999 30L 28.299999 32C 30.364096 34.048164 30.460829 37.354668 28.52 39.52L 26 42.32C 25.126408 43.343643 24.66324 44.654762 24.700001 46L 24.700001 51.740002M 47.080002 17.4L 36.5 17.4C 34.235634 17.4 32.400002 19.235634 32.400002 21.5C 32.400002 23.764366 34.235634 25.6 36.5 25.6L 37.279999 25.6C 39.104786 25.590874 40.8144 26.490671 41.84 28L 44.639999 32.200001M 33 46.5C 33 48.985283 35.014717 51 37.5 51C 39.985283 51 42 48.985283 42 46.5C 42 44.014717 39.985283 42 37.5 42C 35.014717 42 33 44.014717 33 46.5M 48 52.5C 48 54.985283 50.014717 57 52.5 57C 54.985283 57 57 54.985283 57 52.5C 57 50.014717 54.985283 48 52.5 48C 50.014717 48 48 50.014717 48 52.5M 48 37.5C 48 39.985283 50.014717 42 52.5 42C 54.985283 42 57 39.985283 57 37.5C 57 35.014717 54.985283 33 52.5 33C 50.014717 33 48 35.014717 48 37.5M 41.34 44.18L 48.66 39.799999M 41.68 48.18L 48.32 50.82"></path></g></g></g><g id="g-root-ic_1_1qapwu616idqtm-stroke" data-item-order="0" transform="translate(517.525390625, 146.61083984375)"><g id="ic_1_1qapwu616idqtm-stroke" fill="none" stroke-linecap="round" stroke-linejoin="round" stroke-miterlimit="4" stroke="#484848" stroke-width="2"><g><path d="M 49 33L 49 55C 49 56.104568 48.104568 57 47 57L 13 57C 11.895431 57 11 56.104568 11 55L 11 17C 11 15.895431 11.895431 15 13 15L 39 15M 35.648003 38.014L 25.75 42.254002L 29.992001 32.354L 51.348 11L 57.004002 16.656L 35.648003 38.014ZM 53.334 20.327999L 47.675999 14.67M 35.648003 38.014L 29.992001 32.354"></path></g></g></g><g id="g-root-tx_markdown_dcc1vi16iglc5-stroke" data-item-order="0" transform="translate(620.187255859375, 62)"></g><g id="g-root-ic_imag_140i0se16if66j-stroke" data-item-order="0" transform="translate(384.6091613769531, 267.83251953125)"><g id="ic_imag_140i0se16if66j-stroke" fill="none" stroke-linecap="round" stroke-linejoin="round" stroke-miterlimit="4" stroke="#484848" stroke-width="2"><g><path d="M 96 64L 96 96C 96 100.418282 92.418282 104 88 104L 20 104C 15.581722 104 12 100.418282 12 96L 12 40C 12 35.581722 15.581722 32 20 32L 68 32M 12 50L 68 50M 27 40C 27.552284 40 28 40.447716 28 41C 28 41.552284 27.552284 42 27 42C 26.447716 42 26 41.552284 26 41C 26 40.447716 26.447716 40 27 40M 39 40C 39.552284 40 40 40.447716 40 41C 40 41.552284 39.552284 42 39 42C 38.447716 42 38 41.552284 38 41C 38 40.447716 38.447716 40 39 40M 51 40C 51.552284 40 52 40.447716 52 41C 52 41.552284 51.552284 42 51 42C 50.447716 42 50 41.552284 50 41C 50 40.447716 50.447716 40 51 40M 76 94L 65.720001 70.360001C 65.431366 69.610672 64.722549 69.106628 63.919998 69.080002C 63.119076 69.066422 62.390491 69.54158 62.080002 70.279999L 54 86L 46 78C 45.584858 77.508514 44.962204 77.241669 44.32 77.279999C 43.67326 77.322388 43.089291 77.681755 42.760002 78.239998L 32 94ZM 28 64C 28 67.313705 30.686293 70 34 70C 37.313709 70 40 67.313705 40 64C 40 60.686295 37.313709 58 34 58C 30.686293 58 28 60.686295 28 64M 80 12L 100 12C 100 12 104 12 104 16L 104 52C 104 52 104 56 100 56L 80 56C 80 56 76 56 76 52L 76 16C 76 16 76 12 80 12M 76 48L 104 48"></path></g></g></g><g id="g-root-tx_interact_qnsk8u16igjr6-stroke" data-item-order="0" transform="translate(14, 290.8768310546875)"></g><g id="g-root-tx_openecos_hs5jzy16igkjv-stroke" data-item-order="0" transform="translate(38.61083984375, 38)"></g><g id="g-root-tx_github_v2zla616igm4p-stroke" data-item-order="0" transform="translate(692.798095703125, 334.27587890625)"></g><g id="g-root-tx_elements_1lz9qbi16if7k5-stroke" data-item-order="0" transform="translate(38, 359.3990478515625)"></g><g id="g-root-ic_2_18itf9a16iax3b-stroke" data-item-order="0" transform="translate(233.13299560546875, 349.921142578125)"><g id="ic_2_18itf9a16iax3b-stroke" fill="none" stroke-linecap="round" stroke-linejoin="round" stroke-miterlimit="4" stroke="#484848" stroke-width="2"><g><path d="M 27 17.015999C 27 20.329708 29.686293 23.015999 33 23.015999C 36.313709 23.015999 39 20.329708 39 17.016001C 39 13.702291 36.313709 11.016 33 11.016C 29.686293 11.016 27 13.702291 27 17.016001ZM 33 23.015999L 33 44.015999M 27 34.571999L 25 35.015999L 12.274 31.379999C 11.9723 31.294044 11.647748 31.354649 11.397397 31.543688C 11.147047 31.732729 10.999915 32.028294 11 32.341999L 11 52.262001C 11.000772 52.708118 11.296955 53.099766 11.726 53.222L 24.756001 56.945999C 24.916271 56.991585 25.085396 56.996395 25.248001 56.959999L 42.751999 53.07C 42.914772 53.034256 43.083897 53.039753 43.243999 53.085999L 55.726002 56.652C 56.027702 56.737957 56.352253 56.677353 56.602604 56.488312C 56.852955 56.299271 57.000084 56.003708 57 55.689999L 57 35.77C 57.000122 35.323143 56.703758 34.930439 56.273998 34.807999L 43.243999 31.086C 43.083897 31.039755 42.914772 31.034254 42.751999 31.07L 39 31.906M 25 35.015999L 25 56.984001M 43 31.048L 43 53.015999"></path></g></g></g><g id="g-root-ic_1_meua2m16ice0x-stroke" data-item-order="0" transform="translate(581.6650390625, 349.921142578125)"><g id="ic_1_meua2m16ice0x-stroke" fill="none" stroke-linecap="round" stroke-linejoin="round" stroke-miterlimit="4" stroke="#484848" stroke-width="2"><g><path d="M 34 11C 22.710445 10.989351 13.082205 19.174097 11.274927 30.31806C 9.46765 41.462021 16.015713 52.270168 26.73 55.827999C 27.878 56.028 28.242001 55.354 28.242001 54.745998C 28.242001 54.195999 28.254 52.672001 28.242001 50.745998C 21.841999 52.133999 20.52 47.716 20.52 47.716C 20.098045 46.326046 19.192863 45.132847 17.967999 44.351997C 15.88 42.924 18.124001 42.952 18.124001 42.952C 19.601326 43.154766 20.902054 44.028809 21.647999 45.32C 22.276947 46.466057 23.33811 47.312988 24.595106 47.672131C 25.852102 48.031269 27.200523 47.872795 28.34 47.231998C 28.44611 46.069351 28.963858 44.982792 29.800001 44.168003C 24.694 43.584 19.324001 41.612 19.324001 32.795998C 19.29158 30.510563 20.140278 28.300371 21.694 26.624001C 20.989958 24.640976 21.070087 22.463902 21.917999 20.538C 21.917999 20.538 23.852001 19.92 28.242001 22.897999C 32.01231 21.863369 35.991692 21.863369 39.762001 22.898001C 44.161999 19.922001 46.080002 20.538 46.080002 20.538C 46.928215 22.463619 47.009762 24.640316 46.307999 26.624001C 47.862122 28.301443 48.709572 30.513554 48.674 32.799999C 48.674 41.639999 43.296001 43.582001 38.172001 44.147999C 39.285561 45.266937 39.859676 46.813477 39.746002 48.388L 39.746002 54.756001C 39.746002 55.369999 40.118 56.049999 41.285999 55.827999C 52.003197 52.269238 58.551495 41.45649 56.739853 30.310144C 54.928211 19.163797 45.292599 10.981462 34 11Z"></path></g></g></g><g id="g-root-tx_platform_18eg3ni16igkjr-stroke" data-item-order="0" transform="translate(692.798095703125, 359.399169921875)"></g><g id="g-root-tx_mediaint_hs5jzy16igkjw-stroke" data-item-order="0" transform="translate(324.6092224121094, 558.27587890625)"></g><g id="g-root-ic_coll_8x50u616ice14-stroke" data-item-order="0" transform="translate(407.3990173339844, 466.0985107421875)"><g id="ic_coll_8x50u616ice14-stroke" fill="none" stroke-linecap="round" stroke-linejoin="round" stroke-miterlimit="4" stroke="#484848" stroke-width="2"><g><path d="M 28.751961 51.992802C 28.751961 54.201801 30.542801 55.992802 32.751999 55.992802L 45.139599 55.992802C 47.348801 55.992802 49.139599 54.201801 49.139599 51.992802L 49.139599 50.308201C 49.263199 50.425598 49.402802 50.528198 49.5564 50.612202L 53.072399 52.5382C 54.405201 53.268398 56.033199 52.304001 56.033199 50.784199L 56.033199 43.361801C 56.033199 41.842201 54.405201 40.8778 53.072399 41.6078L 49.5564 43.533798C 49.402802 43.618 49.263199 43.7206 49.139599 43.838001L 49.139599 42.150398C 49.139599 39.9412 47.348801 38.150398 45.139599 38.150398L 32.751999 38.150398C 30.542801 38.150398 28.751961 39.9412 28.751961 42.150398L 28.751961 51.992802ZM 10 10M 46.177799 33.0308L 46.177799 16.00518C 46.177799 13.79604 44.386799 12.00518 42.177799 12.00518L 15.970699 12.00518C 13.76156 12.00518 11.970702 13.79604 11.970702 16.00518L 11.970702 41.732399C 11.970704 43.941601 13.76156 45.732399 15.970699 45.732399L 23.52914 45.732399M 10 10M 28.751961 12.00586L 28.751961 33.029198M 10 10M 46.177799 28.869141L 11.966796 28.869141"></path></g></g></g><g id="g-root-tx_seamless_1cu9lry16igjri-stroke" data-item-order="0" transform="translate(312.6092224121094, 560.7979736328125)"></g><g id="g-root-tx_accessto_9m6pq16if66c-stroke" data-item-order="0" transform="translate(38.61083984375, 40.52215576171875)"></g></g></g><path id="w1qa425vgzm4n4" d="M65.283 12.757a.35.35 0 0 0 .584.157l5.203-5.141-6.183 3.523.396 1.461zm-2.216-11.7a.35.35 0 0 0-.522.305v3.111l3.276-1.868-2.754-1.548zm3.728 2.105l-4.25 2.421v2.445l6.391-3.644-2.141-1.222zm4.708 3.303a.35.35 0 0 0 0-.609l-1.592-.9-7.365 4.199v1.782a.35.35 0 0 0 .523.305l8.435-4.777z M44.542 2.513c0-.433.355-.783.792-.783s.792.35.792.783-.355.783-.792.783-.792-.35-.792-.783zm59.171 0c0-.433.355-.783.792-.783s.792.35.792.783-.355.783-.792.783-.792-.35-.792-.783zm-85.951 7.636h-1.27v-.487c-.276.201-.864.609-1.881.609-1.202 0-2.274-.794-2.137-2.078.118-1.106 1.153-1.584 1.848-1.727l2.17-.345c0-.539-.29-.956-1.064-1.006s-1.21.305-1.571 1.017l-1.124-.605c1.218-2.631 5.029-1.764 5.029.414v4.207zm-1.27-2.86c.006.396-.062 1.112-.819 1.59-.587.37-1.841.299-1.903-.395-.049-.555.461-.791.906-.898l1.816-.297zm72.662 2.86h-1.27v-.487c-.276.201-.864.609-1.881.609-1.202 0-2.274-.794-2.137-2.078.118-1.106 1.153-1.584 1.848-1.727l2.17-.345c0-.539-.29-.956-1.064-1.006s-1.21.305-1.571 1.017l-1.124-.605c1.218-2.631 5.029-1.764 5.029.414v4.207zm-1.27-2.86c.006.396-.062 1.112-.82 1.59-.587.37-1.841.299-1.903-.395-.049-.555.461-.791.906-.898l1.816-.297zM99.096 10.149H97.85v-8.45h1.246v4.895l2.68-2.559h1.738l-2.633 2.535 2.715 3.578h-1.556l-2.077-2.707-.867.844v1.863zm6.053-6.114h-1.255v6.113h1.255V4.035zm-59.2 0h-1.255v6.113h1.255V4.035zm5.584 6.113V1.697h1.255v2.695c.361-.346 1-.485 1.47-.485 1.452 0 2.477 1.082 2.457 2.448v3.792h-1.27v-3.68c0-.408-.214-1.339-1.315-1.339-.968 0-1.342.756-1.342 1.339v3.681h-1.255zm-4.76-4.894V4.039h.621a.45.45 0 0 0 .45-.45v-.855h1.251v1.305h1.309v1.215h-1.309v3.109c0 .293.105.664.648.664.365 0 .531-.035.736-.07v1.137s-.361.113-.857.113c-1.398 0-1.777-1.051-1.777-1.788V5.254h-1.071zM36.528 4.039h-1.394l2.191 6.106h1.125l1.234-3.918 1.238 3.918h1.129l2.188-6.106h-1.383l-1.359 3.93-1.256-3.93h-1.124l-1.242 3.957-1.348-3.957zM26.212 7.141c-.02 1.566 1.187 3.129 3.223 3.129 1.566 0 2.383-.918 2.734-1.719L31.172 8c-.315.399-.801 1.094-1.738 1.094-1.145 0-1.825-.781-1.891-1.52h4.625c.074-.284.148-.995-.03-1.559-.336-1.064-1.221-2.102-2.839-2.102s-3.088 1.152-3.088 3.227zm1.363-.75h3.348c-.055-.43-.566-1.301-1.623-1.301a1.79 1.79 0 0 0-1.725 1.301zm-8.758.75c.038 1.758 1.277 3.133 3.145 3.133 1.074 0 1.723-.477 1.961-.672v.547h1.242V1.703h-1.258v2.888c-.414-.36-1.062-.68-1.93-.68-1.91 0-3.198 1.473-3.16 3.23zm1.309-.08c0 1.119.723 1.978 1.836 1.978a1.88 1.88 0 0 0 1.94-1.904c0-1.371-1.011-1.99-1.972-1.99s-1.805.798-1.805 1.916zm76.683-.028C96.771 5.275 95.532 3.9 93.664 3.9c-1.074 0-1.723.477-1.961.672v-.547h-1.242v8.22h1.258V9.583c.414.36 1.063.68 1.93.68 1.91 0 3.198-1.473 3.16-3.23zm-1.309.08c0-1.119-.723-1.978-1.836-1.978a1.88 1.88 0 0 0-1.94 1.904c0 1.371 1.011 1.99 1.972 1.99S95.5 8.231 95.5 7.113zM106.441 10.173V4.036h1.254v.382c.361-.346 1-.485 1.47-.485 1.452 0 2.477 1.082 2.457 2.448v3.792h-1.27V6.492c0-.408-.214-1.339-1.315-1.339-.969 0-1.342.756-1.342 1.339v3.681h-1.254zm-30.383-.021V1.824h1.084l4.215 5.777V1.824h1.32v8.328h-1.094l-4.207-5.796v5.796h-1.319zM5.24 10.149H4V2.377h1.014l2.664 3.597 2.654-3.592h1.03v7.766h-1.256V4.762L7.678 8.068 5.24 4.742v5.407z" transform="translate(806.798095703125, 726.7979736328125)" fill="#80808088" stroke="none"></path></svg>